<?xml version="1.0" encoding="UTF-8" standalone="no"?>
<!-- Created with Inkscape (http://www.inkscape.org/) -->

<svg
   width="57.507919mm"
   height="42.651188mm"
   viewBox="0 0 57.507919 42.651188"
   version="1.1"
   id="svg1"
   inkscape:version="1.4 (86a8ad7, 2024-10-11)"
   sodipodi:docname="logo.svg"
   xmlns:inkscape="http://www.inkscape.org/namespaces/inkscape"
   xmlns:sodipodi="http://sodipodi.sourceforge.net/DTD/sodipodi-0.dtd"
   xmlns="http://www.w3.org/2000/svg"
   xmlns:svg="http://www.w3.org/2000/svg">
  <sodipodi:namedview
     id="namedview1"
     pagecolor="#505050"
     bordercolor="#ffffff"
     borderopacity="1"
     inkscape:showpageshadow="0"
     inkscape:pageopacity="0"
     inkscape:pagecheckerboard="1"
     inkscape:deskcolor="#505050"
     inkscape:document-units="mm"
     inkscape:zoom="1.5411756"
     inkscape:cx="375.03837"
     inkscape:cy="106.7367"
     inkscape:window-width="1920"
     inkscape:window-height="1094"
     inkscape:window-x="378"
     inkscape:window-y="1717"
     inkscape:window-maximized="1"
     inkscape:current-layer="layer1" />
  <defs
     id="defs1">
    <clipPath
       clipPathUnits="userSpaceOnUse"
       id="clipPath881">
      <path
         d="M 42.365,403.714 H 1232.917 V 1450.772 H 42.365 Z"
         transform="translate(-1135.3758,-1457.2375)"
         id="path881" />
    </clipPath>
    <clipPath
       clipPathUnits="userSpaceOnUse"
       id="clipPath883">
      <path
         d="M 42.365,403.714 H 1232.917 V 1450.772 H 42.365 Z"
         transform="translate(-1128.8716,-1482.1733)"
         id="path883" />
    </clipPath>
    <clipPath
       clipPathUnits="userSpaceOnUse"
       id="clipPath972">
      <path
         d="M 42.365,403.714 H 1232.917 V 1450.772 H 42.365 Z"
         transform="translate(-1219.3042,-1282.8193)"
         id="path972" />
    </clipPath>
    <clipPath
       clipPathUnits="userSpaceOnUse"
       id="clipPath63702">
      <path
         d="m 1042.569,1277.622 h 163.939 v 120.901 h -163.939 z"
         transform="translate(-1159.2276,-1349.6619)"
         id="path63702" />
    </clipPath>
    <clipPath
       clipPathUnits="userSpaceOnUse"
       id="clipPath63704">
      <path
         d="m 1042.569,1277.622 h 163.939 v 120.901 h -163.939 z"
         transform="translate(-1172.3922,-1378.938)"
         id="path63704" />
    </clipPath>
    <clipPath
       clipPathUnits="userSpaceOnUse"
       id="clipPath63706">
      <path
         d="m 1042.569,1277.622 h 163.939 v 120.901 h -163.939 z"
         transform="translate(-1159.2276,-1349.6619)"
         id="path63706" />
    </clipPath>
    <clipPath
       clipPathUnits="userSpaceOnUse"
       id="clipPath63708">
      <path
         d="m 1042.569,1277.622 h 163.939 v 120.901 h -163.939 z"
         transform="translate(-1059.9949,-1367.8224)"
         id="path63708" />
    </clipPath>
    <clipPath
       clipPathUnits="userSpaceOnUse"
       id="clipPath63710">
      <path
         d="m 1042.569,1277.622 h 163.939 v 120.901 h -163.939 z"
         transform="translate(-1148.2678,-1314.9307)"
         id="path63710" />
    </clipPath>
    <clipPath
       clipPathUnits="userSpaceOnUse"
       id="clipPath63712">
      <path
         d="m 1042.569,1277.622 h 163.939 v 120.901 h -163.939 z"
         transform="translate(-1205.4561,-1307.8929)"
         id="path63712" />
    </clipPath>
    <clipPath
       clipPathUnits="userSpaceOnUse"
       id="clipPath63714">
      <path
         d="m 1042.569,1277.622 h 163.939 v 120.901 h -163.939 z"
         transform="translate(-1152.808,-1398.5237)"
         id="path63714" />
    </clipPath>
    <clipPath
       clipPathUnits="userSpaceOnUse"
       id="clipPath63716">
      <path
         d="m 1042.569,1277.622 h 163.939 v 120.901 h -163.939 z"
         transform="translate(-1133.4435,-1375.9877)"
         id="path63716" />
    </clipPath>
    <clipPath
       clipPathUnits="userSpaceOnUse"
       id="clipPath63718">
      <path
         d="m 1042.569,1277.622 h 163.939 v 120.901 h -163.939 z"
         transform="translate(-1204.5115,-1334.1975)"
         id="path63718" />
    </clipPath>
    <clipPath
       clipPathUnits="userSpaceOnUse"
       id="clipPath63720">
      <path
         d="m 1042.569,1277.622 h 163.939 v 120.901 h -163.939 z"
         transform="translate(-1046.6736,-1286.8097)"
         id="path63720" />
    </clipPath>
    <clipPath
       clipPathUnits="userSpaceOnUse"
       id="clipPath63722">
      <path
         d="m 1042.569,1277.622 h 163.939 v 120.901 h -163.939 z"
         transform="translate(-1052.0116,-1284.7816)"
         id="path63722" />
    </clipPath>
    <clipPath
       clipPathUnits="userSpaceOnUse"
       id="clipPath63724">
      <path
         d="m 1042.569,1277.622 h 163.939 v 120.901 h -163.939 z"
         transform="translate(-1057.0776,-1279.7855)"
         id="path63724" />
    </clipPath>
    <clipPath
       clipPathUnits="userSpaceOnUse"
       id="clipPath63726">
      <path
         d="m 1042.569,1277.622 h 163.939 v 120.901 h -163.939 z"
         transform="translate(-1062.7786,-1279.8877)"
         id="path63726" />
    </clipPath>
    <clipPath
       clipPathUnits="userSpaceOnUse"
       id="clipPath63728">
      <path
         d="m 1042.569,1277.622 h 163.939 v 120.901 h -163.939 z"
         transform="translate(-1066.848,-1279.6948)"
         id="path63728" />
    </clipPath>
    <clipPath
       clipPathUnits="userSpaceOnUse"
       id="clipPath63730">
      <path
         d="m 1042.569,1277.622 h 163.939 v 120.901 h -163.939 z"
         transform="translate(-1075.6072,-1282.9916)"
         id="path63730" />
    </clipPath>
    <clipPath
       clipPathUnits="userSpaceOnUse"
       id="clipPath63732">
      <path
         d="m 1042.569,1277.622 h 163.939 v 120.901 h -163.939 z"
         transform="translate(-1082.1471,-1282.9015)"
         id="path63732" />
    </clipPath>
    <clipPath
       clipPathUnits="userSpaceOnUse"
       id="clipPath63734">
      <path
         d="m 1042.569,1277.622 h 163.939 v 120.901 h -163.939 z"
         transform="translate(-1086.3186,-1284.7816)"
         id="path63734" />
    </clipPath>
    <clipPath
       clipPathUnits="userSpaceOnUse"
       id="clipPath63736">
      <path
         d="m 1042.569,1277.622 h 163.939 v 120.901 h -163.939 z"
         transform="translate(-1089.7308,-1279.6948)"
         id="path63736" />
    </clipPath>
    <clipPath
       clipPathUnits="userSpaceOnUse"
       id="clipPath63738">
      <path
         d="m 1042.569,1277.622 h 163.939 v 120.901 h -163.939 z"
         transform="translate(-1093.2105,-1279.6948)"
         id="path63738" />
    </clipPath>
    <clipPath
       clipPathUnits="userSpaceOnUse"
       id="clipPath63740">
      <path
         d="m 1042.569,1277.622 h 163.939 v 120.901 h -163.939 z"
         transform="translate(-1103.6254,-1279.8877)"
         id="path63740" />
    </clipPath>
    <clipPath
       clipPathUnits="userSpaceOnUse"
       id="clipPath63742">
      <path
         d="m 1042.569,1277.622 h 163.939 v 120.901 h -163.939 z"
         transform="translate(-1106.9583,-1285.2916)"
         id="path63742" />
    </clipPath>
    <clipPath
       clipPathUnits="userSpaceOnUse"
       id="clipPath63744">
      <path
         d="m 1042.569,1277.622 h 163.939 v 120.901 h -163.939 z"
         transform="translate(-1113.2922,-1279.8877)"
         id="path63744" />
    </clipPath>
    <clipPath
       clipPathUnits="userSpaceOnUse"
       id="clipPath63746">
      <path
         d="m 1042.569,1277.622 h 163.939 v 120.901 h -163.939 z"
         transform="translate(-1118.3932,-1284.7816)"
         id="path63746" />
    </clipPath>
    <clipPath
       clipPathUnits="userSpaceOnUse"
       id="clipPath63748">
      <path
         d="m 1042.569,1277.622 h 163.939 v 120.901 h -163.939 z"
         transform="translate(-1123.131,-1279.8877)"
         id="path63748" />
    </clipPath>
    <clipPath
       clipPathUnits="userSpaceOnUse"
       id="clipPath63750">
      <path
         d="m 1042.569,1277.622 h 163.939 v 120.901 h -163.939 z"
         transform="translate(-1130.5198,-1282.833)"
         id="path63750" />
    </clipPath>
    <clipPath
       clipPathUnits="userSpaceOnUse"
       id="clipPath63752">
      <path
         d="m 1042.569,1277.622 h 163.939 v 120.901 h -163.939 z"
         transform="translate(-1135.7676,-1279.8877)"
         id="path63752" />
    </clipPath>
    <clipPath
       clipPathUnits="userSpaceOnUse"
       id="clipPath63754">
      <path
         d="m 1042.569,1277.622 h 163.939 v 120.901 h -163.939 z"
         transform="translate(-1142.4429,-1279.8877)"
         id="path63754" />
    </clipPath>
    <clipPath
       clipPathUnits="userSpaceOnUse"
       id="clipPath63756">
      <path
         d="m 1042.569,1277.622 h 163.939 v 120.901 h -163.939 z"
         transform="translate(-1149.8436,-1282.833)"
         id="path63756" />
    </clipPath>
    <clipPath
       clipPathUnits="userSpaceOnUse"
       id="clipPath63758">
      <path
         d="m 1042.569,1277.622 h 163.939 v 120.901 h -163.939 z"
         transform="translate(-1161.4819,-1279.8877)"
         id="path63758" />
    </clipPath>
    <clipPath
       clipPathUnits="userSpaceOnUse"
       id="clipPath63760">
      <path
         d="m 1042.569,1277.622 h 163.939 v 120.901 h -163.939 z"
         transform="translate(-1169.0764,-1282.833)"
         id="path63760" />
    </clipPath>
    <clipPath
       clipPathUnits="userSpaceOnUse"
       id="clipPath63762">
      <path
         d="m 1042.569,1277.622 h 163.939 v 120.901 h -163.939 z"
         transform="translate(-1172.3412,-1279.6948)"
         id="path63762" />
    </clipPath>
    <clipPath
       clipPathUnits="userSpaceOnUse"
       id="clipPath63764">
      <path
         d="m 1042.569,1277.622 h 163.939 v 120.901 h -163.939 z"
         transform="translate(-1177.4637,-1284.7816)"
         id="path63764" />
    </clipPath>
    <clipPath
       clipPathUnits="userSpaceOnUse"
       id="clipPath63766">
      <path
         d="m 1042.569,1277.622 h 163.939 v 120.901 h -163.939 z"
         transform="translate(-1183.5372,-1282.9015)"
         id="path63766" />
    </clipPath>
    <clipPath
       clipPathUnits="userSpaceOnUse"
       id="clipPath63768">
      <path
         d="m 1042.569,1277.622 h 163.939 v 120.901 h -163.939 z"
         transform="translate(-1189.9752,-1282.9916)"
         id="path63768" />
    </clipPath>
    <clipPath
       clipPathUnits="userSpaceOnUse"
       id="clipPath63770">
      <path
         d="m 1042.569,1277.622 h 163.939 v 120.901 h -163.939 z"
         transform="translate(-1196.5137,-1282.9015)"
         id="path63770" />
    </clipPath>
    <clipPath
       clipPathUnits="userSpaceOnUse"
       id="clipPath63772">
      <path
         d="m 1042.569,1277.622 h 163.939 v 120.901 h -163.939 z"
         transform="translate(0,-2.5000001e-5)"
         id="path63772" />
    </clipPath>
    <clipPath
       clipPathUnits="userSpaceOnUse"
       id="clipPath63774">
      <path
         d="m 1042.569,1277.622 h 163.939 v 120.901 h -163.939 z"
         transform="translate(-1205.3203,-1282.833)"
         id="path63774" />
    </clipPath>
  </defs>
  <g
     inkscape:label="Calque 1"
     inkscape:groupmode="layer"
     id="layer1"
     transform="translate(-141.81667,-117.65104)">
    <path
       id="path63701"
       d="m 0,0 c 0,-14.542 -11.789,-26.331 -26.331,-26.331 -14.542,0 -26.331,11.789 -26.331,26.331 0,14.542 11.789,26.331 26.331,26.331 C -11.789,26.331 0,14.542 0,0"
       style="fill:#ffffff;fill-opacity:1;fill-rule:nonzero;stroke:none"
       transform="matrix(0.35277776,0,0,-0.35277776,182.8981,134.88814)"
       clip-path="url(#clipPath63702)" />
    <path
       id="path63703"
       d="m 0,0 c 0,-10.815 -8.771,-19.584 -19.584,-19.584 -10.818,0 -19.586,8.769 -19.586,19.584 0,10.816 8.768,19.586 19.586,19.586 C -8.771,19.586 0,10.816 0,0"
       style="fill:#ffffff;fill-opacity:1;fill-rule:nonzero;stroke:none"
       transform="matrix(0.35277776,0,0,-0.35277776,187.5423,124.56019)"
       clip-path="url(#clipPath63704)" />
    <path
       id="path63705"
       d="m 0,0 c 0,-14.542 -11.789,-26.331 -26.331,-26.331 -14.542,0 -26.331,11.789 -26.331,26.331 0,14.542 11.789,26.331 26.331,26.331 C -11.789,26.331 0,14.542 0,0"
       style="fill:#69beec;fill-opacity:1;fill-rule:nonzero;stroke:none"
       transform="matrix(0.35277776,0,0,-0.35277776,182.8981,134.88814)"
       clip-path="url(#clipPath63706)" />
    <path
       id="path63707"
       d="m 0,0 c 0,0 -2.342,-4.202 -3.444,-7.439 h -10.47 c 0,0 -2.826,-0.02 -3.168,-2.341 -0.344,-2.342 0.07,-3.1 0.07,-3.1 0,0 0.069,-1.481 2.824,-1.549 2.755,-0.07 8.815,0 8.815,0 0,0 -3.168,-12.088 1.998,-26.414 1.171,-3.305 8.953,-20.87 25.967,-24.727 1.239,1.654 5.717,6.681 0.62,18.252 -3.307,1.171 -20.8,7.611 -21.077,32.75 6.887,0.068 26.655,0 26.655,0 0,0 3.926,-0.034 3.512,3.341 -0.205,1.378 -1.032,3.754 -3.995,3.754 H 2.893 c 0,0 1.514,4.924 3.443,7.541 C 5.166,1.102 3.031,1.998 0,0"
       style="fill:#ffffff;fill-opacity:1;fill-rule:nonzero;stroke:none"
       transform="matrix(0.35277776,0,0,-0.35277776,147.89102,128.48152)"
       clip-path="url(#clipPath63708)" />
    <path
       id="path63709"
       d="m 0,0 c -5.163,-9.149 -15.073,-15.089 -26.501,-15.089 -16.74,0 -30.311,13.291 -30.311,29.687 0,16.393 13.571,29.684 30.311,29.684 11.354,0 21.251,-6.113 26.442,-15.163 l 0.013,8.069 c 0,0 0.275,1.722 2.134,1.722 1.859,0 2.135,-1.929 2.135,-1.929 v -49.109 c 0,0 -0.206,-1.722 -2.135,-1.722 -1.928,0 -2.123,1.586 -2.123,1.586 z m -26.323,42.492 c -13.066,0 -23.658,-10.13 -23.658,-22.626 0,-12.496 10.592,-22.626 23.658,-22.626 13.066,0 23.66,10.13 23.66,22.626 0,12.496 -10.594,22.626 -23.66,22.626"
       style="fill:#ffffff;fill-opacity:1;fill-rule:nonzero;stroke:none"
       transform="matrix(0.35277776,0,0,-0.35277776,179.03174,147.14054)"
       clip-path="url(#clipPath63710)" />
    <path
       id="path63711"
       d="M 0,0 C -0.834,1.515 -2.529,3.874 -3.741,5.263 -5.807,7.684 -6.922,6.97 -6.922,6.97 -10.128,5.167 -13.829,4.141 -17.767,4.141 c -12.247,0 -22.176,9.928 -22.176,22.176 0,12.25 9.929,22.179 22.176,22.179 5.295,0 10.157,-1.856 13.969,-4.954 0,0 0.664,-0.189 1.448,0.846 0.783,1.035 0.443,1.901 0.443,1.901 -4.497,2.745 -9.788,4.327 -15.451,4.327 -16.347,0 -29.6,-13.191 -29.6,-29.463 0,-16.273 13.253,-29.464 29.6,-29.464 6.172,0 12.672,2 16.643,5.094 0,0 1.768,1.337 0.715,3.217"
       style="fill:#ffffff;fill-opacity:1;fill-rule:nonzero;stroke:none"
       transform="matrix(0.35277776,0,0,-0.35277776,199.20651,149.62332)"
       clip-path="url(#clipPath63712)" />
    <path
       id="path63713"
       d="m 0,0 c -10.818,0 -19.586,-8.769 -19.586,-19.586 0,-1.002 0.077,-1.988 0.222,-2.95 10.697,-0.218 19.828,-6.815 23.743,-16.143 8.706,1.989 15.205,9.783 15.205,19.093 C 19.584,-8.769 10.814,0 0,0"
       style="fill:#cad40b;fill-opacity:1;fill-rule:nonzero;stroke:none"
       transform="matrix(0.35277776,0,0,-0.35277776,180.63342,117.65079)"
       clip-path="url(#clipPath63714)" />
    <path
       id="path63715"
       d="m 0,0 c 1.423,-9.415 9.55,-16.634 19.364,-16.634 1.506,0 2.971,0.17 4.378,0.491 C 19.828,-6.815 10.698,-0.218 0,0"
       style="fill:#6f9c2e;fill-opacity:1;fill-rule:nonzero;stroke:none"
       transform="matrix(0.35277776,0,0,-0.35277776,173.80204,125.60099)"
       clip-path="url(#clipPath63716)" />
    <path
       id="path63717"
       d="m 0,0 c 0,-8.652 -7.016,-15.668 -15.667,-15.668 -8.655,0 -15.668,7.016 -15.668,15.668 0,8.654 7.013,15.668 15.668,15.668 C -7.016,15.668 0,8.654 0,0"
       style="fill:#fbbd1e;fill-opacity:1;fill-rule:nonzero;stroke:none"
       transform="matrix(0.35277776,0,0,-0.35277776,198.87327,140.34364)"
       clip-path="url(#clipPath63718)" />
    <path
       id="path63719"
       d="M 0,0 V -6.922 H -1.201 V 0 H -3.784 V 1.077 H 2.617 V 0 Z"
       style="fill:#ffffff;fill-opacity:1;fill-rule:nonzero;stroke:none"
       transform="matrix(0.35277776,0,0,-0.35277776,143.19155,157.06101)"
       clip-path="url(#clipPath63720)" />
    <path
       id="path63721"
       d="m 0,0 c -0.113,0.057 -0.294,0.136 -0.487,0.136 -0.465,0 -0.702,-0.215 -0.952,-0.487 -0.192,-0.227 -0.215,-0.43 -0.215,-0.725 v -3.818 h -1.099 v 4.52 c 0,0.487 -0.034,1.201 -0.045,1.496 h 0.997 V 0.17 c 0.351,0.555 0.804,1.099 1.552,1.099 0.204,0 0.419,-0.057 0.544,-0.102 z"
       style="fill:#ffffff;fill-opacity:1;fill-rule:nonzero;stroke:none"
       transform="matrix(0.35277776,0,0,-0.35277776,145.07469,157.77647)"
       clip-path="url(#clipPath63722)" />
    <path
       id="path63723"
       d="m 0,0 c -0.6,0 -0.77,0.408 -0.816,0.895 -0.476,-0.612 -1.019,-0.963 -1.835,-0.963 -0.997,0 -1.733,0.714 -1.733,1.688 0,1.632 1.642,1.937 2.968,1.937 0.43,0 0.521,0.012 0.521,0.182 v 0.543 c 0,0.601 -0.363,1.11 -1.258,1.11 -0.679,0 -1.144,-0.283 -1.461,-0.6 l -0.51,0.816 c 0.589,0.476 1.258,0.691 2.209,0.691 0.997,0 2.062,-0.476 2.062,-2.017 V 1.246 c 0,-0.226 0.046,-0.385 0.261,-0.385 0.079,0 0.181,0.023 0.26,0.045 L 0.748,0.125 C 0.566,0.068 0.272,0 0,0 m -0.907,2.787 c -0.181,0 -0.373,0.012 -0.566,0.012 -0.77,0 -1.824,-0.137 -1.824,-1.077 0,-0.521 0.408,-0.906 0.986,-0.906 0.487,0 0.883,0.192 1.156,0.521 0.181,0.204 0.248,0.385 0.248,0.68 z"
       style="fill:#ffffff;fill-opacity:1;fill-rule:nonzero;stroke:none"
       transform="matrix(0.35277776,0,0,-0.35277776,146.86185,159.53899)"
       clip-path="url(#clipPath63724)" />
    <path
       id="path63725"
       d="M 0,0 V 3.954 C 0,4.712 -0.397,5.177 -1.212,5.177 -1.688,5.177 -2.096,4.951 -2.39,4.622 -2.628,4.339 -2.674,4.226 -2.674,3.863 V 0 h -1.087 v 6.015 h 1.019 V 5.098 c 0.442,0.657 1.054,1.099 1.915,1.099 1.212,0 1.915,-0.782 1.915,-2.028 V 0 Z"
       style="fill:#ffffff;fill-opacity:1;fill-rule:nonzero;stroke:none"
       transform="matrix(0.35277776,0,0,-0.35277776,148.87305,159.50293)"
       clip-path="url(#clipPath63726)" />
    <path
       id="path63727"
       d="m 0,0 c -0.77,0 -1.371,0.238 -1.733,0.544 l 0.51,0.85 c 0.362,-0.317 0.815,-0.499 1.314,-0.499 0.498,0 1.133,0.216 1.133,0.85 0,0.555 -0.51,0.759 -0.963,0.94 L -0.294,2.9 c -0.748,0.284 -1.246,0.737 -1.246,1.609 0,1.065 0.894,1.881 2.106,1.881 0.759,0 1.281,-0.238 1.598,-0.499 L 1.654,5.042 C 1.325,5.325 0.94,5.483 0.521,5.483 c -0.736,0 -1.042,-0.408 -1.042,-0.815 0,-0.453 0.408,-0.68 0.804,-0.827 L 0.838,3.625 C 1.677,3.297 2.254,2.867 2.254,1.881 2.254,0.748 1.303,0 0,0"
       style="fill:#ffffff;fill-opacity:1;fill-rule:nonzero;stroke:none"
       transform="matrix(0.35277776,0,0,-0.35277776,150.30863,159.57098)"
       clip-path="url(#clipPath63728)" />
    <path
       id="path63729"
       d="m 0,0 c 0,-1.586 -0.838,-3.285 -2.628,-3.285 -0.476,0 -1.043,0.125 -1.348,0.464 V -5.37 h -1.088 v 8.282 h 1.02 V 1.971 C -3.648,2.606 -3.081,3.093 -2.22,3.093 -0.793,3.093 0,1.62 0,-0.011 Z m -2.617,2.074 c -0.51,0 -0.838,-0.261 -1.076,-0.533 C -3.931,1.269 -3.976,1.133 -3.976,0.804 v -2.401 c 0,-0.453 0.374,-0.827 1.155,-0.827 1.178,0 1.688,1.087 1.688,2.232 0,1.144 -0.43,2.266 -1.484,2.266"
       style="fill:#ffffff;fill-opacity:1;fill-rule:nonzero;stroke:none"
       transform="matrix(0.35277776,0,0,-0.35277776,153.39869,158.40795)"
       clip-path="url(#clipPath63730)" />
    <path
       id="path63731"
       d="m 0,0 c 0,-1.643 -0.884,-3.229 -2.764,-3.229 -1.903,0 -2.719,1.575 -2.719,3.24 0,1.654 0.895,3.195 2.764,3.195 1.903,0 2.708,-1.541 2.708,-3.195 z m -2.719,2.277 c -1.235,0 -1.631,-1.258 -1.631,-2.266 0,-0.997 0.328,-2.311 1.586,-2.311 1.257,0 1.631,1.303 1.631,2.289 0,0.996 -0.329,2.288 -1.586,2.288"
       style="fill:#ffffff;fill-opacity:1;fill-rule:nonzero;stroke:none"
       transform="matrix(0.35277776,0,0,-0.35277776,155.70581,158.43973)"
       clip-path="url(#clipPath63732)" />
    <path
       id="path63733"
       d="m 0,0 c -0.113,0.057 -0.294,0.136 -0.487,0.136 -0.465,0 -0.702,-0.215 -0.952,-0.487 -0.192,-0.227 -0.215,-0.43 -0.215,-0.725 v -3.818 h -1.099 v 4.52 c 0,0.487 -0.034,1.201 -0.045,1.496 h 0.997 V 0.17 c 0.351,0.555 0.804,1.099 1.552,1.099 0.204,0 0.419,-0.057 0.544,-0.102 z"
       style="fill:#ffffff;fill-opacity:1;fill-rule:nonzero;stroke:none"
       transform="matrix(0.35277776,0,0,-0.35277776,157.17745,157.77647)"
       clip-path="url(#clipPath63734)" />
    <path
       id="path63735"
       d="M 0,0 C -1.076,0 -1.598,0.68 -1.598,1.677 V 5.212 H -2.64 v 0.872 h 1.054 V 7.375 L -0.51,7.749 V 6.084 H 1.042 V 5.212 H -0.51 V 1.813 c 0,-0.634 0.329,-0.895 0.861,-0.895 0.283,0 0.521,0.068 0.668,0.147 L 1.189,0.193 C 0.906,0.079 0.442,0 0,0"
       style="fill:#ffffff;fill-opacity:1;fill-rule:nonzero;stroke:none"
       transform="matrix(0.35277776,0,0,-0.35277776,158.38117,159.57098)"
       clip-path="url(#clipPath63736)" />
    <path
       id="path63737"
       d="m 0,0 c -0.77,0 -1.371,0.238 -1.733,0.544 l 0.51,0.85 c 0.362,-0.317 0.815,-0.499 1.314,-0.499 0.498,0 1.133,0.216 1.133,0.85 0,0.555 -0.51,0.759 -0.963,0.94 L -0.294,2.9 c -0.748,0.284 -1.247,0.737 -1.247,1.609 0,1.065 0.895,1.881 2.107,1.881 0.759,0 1.281,-0.238 1.598,-0.499 L 1.654,5.042 C 1.325,5.325 0.94,5.483 0.521,5.483 c -0.736,0 -1.042,-0.408 -1.042,-0.815 0,-0.453 0.408,-0.68 0.804,-0.827 L 0.838,3.625 C 1.677,3.297 2.254,2.867 2.254,1.881 2.254,0.748 1.303,0 0,0"
       style="fill:#ffffff;fill-opacity:1;fill-rule:nonzero;stroke:none"
       transform="matrix(0.35277776,0,0,-0.35277776,159.60873,159.57098)"
       clip-path="url(#clipPath63738)" />
    <path
       id="path63739"
       d="m 0,0 v 0.929 c -0.396,-0.623 -0.918,-1.11 -1.767,-1.11 -1.496,0 -2.266,1.586 -2.266,3.195 0,1.619 0.838,3.183 2.628,3.183 0.487,0 1.031,-0.136 1.326,-0.465 V 8.383 H 1.02 V 0 Z m -0.068,4.497 c 0,0.488 -0.374,0.828 -1.19,0.828 -1.189,0 -1.642,-1.009 -1.642,-2.13 0,-1.144 0.408,-2.368 1.495,-2.368 0.51,0 0.85,0.283 1.065,0.532 0.227,0.272 0.272,0.442 0.272,0.748 z"
       style="fill:#ffffff;fill-opacity:1;fill-rule:nonzero;stroke:none"
       transform="matrix(0.35277776,0,0,-0.35277776,163.28289,159.50293)"
       clip-path="url(#clipPath63740)" />
    <path
       id="path63741"
       d="m 0,0 h -0.952 c 0.578,0.725 0.929,1.394 0.929,2.096 0,0.261 -0.056,0.578 -0.181,0.884 H 0.873 C 0.94,2.821 1.02,2.515 1.02,2.289 1.02,1.404 0.612,0.612 0,0"
       style="fill:#ffffff;fill-opacity:1;fill-rule:nonzero;stroke:none"
       transform="matrix(0.35277776,0,0,-0.35277776,164.45867,157.59656)"
       clip-path="url(#clipPath63742)" />
    <path
       id="path63743"
       d="M 0,0 -0.702,1.903 H -3.863 L -4.543,0 H -5.732 L -2.9,8.021 h 1.303 L 1.28,0 Z M -1.881,5.381 C -2.051,5.88 -2.22,6.514 -2.266,6.798 H -2.3 C -2.345,6.525 -2.515,5.891 -2.696,5.37 l -0.85,-2.458 h 2.538 z"
       style="fill:#ffffff;fill-opacity:1;fill-rule:nonzero;stroke:none"
       transform="matrix(0.35277776,0,0,-0.35277776,166.69311,159.50293)"
       clip-path="url(#clipPath63744)" />
    <path
       id="path63745"
       d="m 0,0 c -0.113,0.057 -0.294,0.136 -0.487,0.136 -0.465,0 -0.702,-0.215 -0.952,-0.487 -0.192,-0.227 -0.215,-0.43 -0.215,-0.725 v -3.818 h -1.099 v 4.52 c 0,0.487 -0.034,1.201 -0.045,1.496 h 0.997 V 0.17 c 0.351,0.555 0.804,1.099 1.552,1.099 0.204,0 0.419,-0.057 0.544,-0.102 z"
       style="fill:#ffffff;fill-opacity:1;fill-rule:nonzero;stroke:none"
       transform="matrix(0.35277776,0,0,-0.35277776,168.49264,157.77647)"
       clip-path="url(#clipPath63746)" />
    <path
       id="path63747"
       d="m 0,0 v 0.929 c -0.396,-0.623 -0.918,-1.11 -1.767,-1.11 -1.496,0 -2.266,1.586 -2.266,3.195 0,1.619 0.838,3.183 2.628,3.183 0.487,0 1.031,-0.136 1.326,-0.465 V 8.383 H 1.02 V 0 Z m -0.068,4.497 c 0,0.488 -0.374,0.828 -1.19,0.828 -1.189,0 -1.642,-1.009 -1.642,-2.13 0,-1.144 0.408,-2.368 1.495,-2.368 0.51,0 0.85,0.283 1.065,0.532 0.227,0.272 0.272,0.442 0.272,0.748 z"
       style="fill:#ffffff;fill-opacity:1;fill-rule:nonzero;stroke:none"
       transform="matrix(0.35277776,0,0,-0.35277776,170.16402,159.50293)"
       clip-path="url(#clipPath63748)" />
    <path
       id="path63749"
       d="m 0,0 h -3.886 l -0.011,-0.159 c 0,-1.189 0.736,-2.027 1.982,-2.027 0.555,0 1.088,0.238 1.416,0.509 l 0.465,-0.86 c -0.487,-0.352 -1.19,-0.59 -2.073,-0.59 -1.87,0 -2.867,1.349 -2.867,3.15 0,1.552 0.782,3.229 2.617,3.229 1.688,0 2.38,-1.371 2.38,-2.731 C 0.023,0.363 0.011,0.17 0,0 m -2.413,2.402 c -1.02,0 -1.439,-0.861 -1.473,-1.575 h 2.878 c 0.022,0.771 -0.465,1.575 -1.405,1.575"
       style="fill:#ffffff;fill-opacity:1;fill-rule:nonzero;stroke:none"
       transform="matrix(0.35277776,0,0,-0.35277776,172.77064,158.4639)"
       clip-path="url(#clipPath63750)" />
    <path
       id="path63751"
       d="M 0,0 V 3.954 C 0,4.712 -0.397,5.177 -1.212,5.177 -1.688,5.177 -2.096,4.951 -2.39,4.622 -2.628,4.339 -2.674,4.226 -2.674,3.863 V 0 h -1.087 v 6.015 h 1.019 V 5.098 c 0.442,0.657 1.054,1.099 1.915,1.099 1.212,0 1.915,-0.782 1.915,-2.028 V 0 Z"
       style="fill:#ffffff;fill-opacity:1;fill-rule:nonzero;stroke:none"
       transform="matrix(0.35277776,0,0,-0.35277776,174.62195,159.50293)"
       clip-path="url(#clipPath63752)" />
    <path
       id="path63753"
       d="M 0,0 V 3.954 C 0,4.712 -0.396,5.177 -1.212,5.177 -1.688,5.177 -2.096,4.951 -2.39,4.622 -2.628,4.339 -2.674,4.226 -2.674,3.863 V 0 h -1.087 v 6.015 h 1.019 V 5.098 c 0.442,0.657 1.054,1.099 1.915,1.099 1.213,0 1.915,-0.782 1.915,-2.028 V 0 Z"
       style="fill:#ffffff;fill-opacity:1;fill-rule:nonzero;stroke:none"
       transform="matrix(0.35277776,0,0,-0.35277776,176.97685,159.50293)"
       clip-path="url(#clipPath63754)" />
    <path
       id="path63755"
       d="m 0,0 h -3.886 l -0.011,-0.159 c 0,-1.189 0.736,-2.027 1.983,-2.027 0.555,0 1.087,0.238 1.415,0.509 l 0.465,-0.86 c -0.487,-0.352 -1.19,-0.59 -2.073,-0.59 -1.87,0 -2.866,1.349 -2.866,3.15 0,1.552 0.781,3.229 2.616,3.229 1.688,0 2.379,-1.371 2.379,-2.731 C 0.022,0.363 0.011,0.17 0,0 m -2.413,2.402 c -1.02,0 -1.439,-0.861 -1.473,-1.575 h 2.877 c 0.023,0.771 -0.464,1.575 -1.404,1.575"
       style="fill:#ffffff;fill-opacity:1;fill-rule:nonzero;stroke:none"
       transform="matrix(0.35277776,0,0,-0.35277776,179.58765,158.4639)"
       clip-path="url(#clipPath63756)" />
    <path
       id="path63757"
       d="M 0,0 -0.181,5.007 C -0.193,5.358 -0.193,5.97 -0.193,6.197 H -0.215 C -0.261,5.959 -0.408,5.46 -0.612,4.928 L -2.504,0 h -0.895 l -1.914,4.985 c -0.159,0.419 -0.329,0.974 -0.363,1.178 h -0.022 c 0,-0.227 0.011,-0.759 0,-1.111 L -5.846,0 H -6.9 l 0.25,7.998 h 1.36 L -3.285,2.73 C -3.07,2.175 -2.934,1.722 -2.889,1.507 h 0.022 c 0.057,0.237 0.205,0.691 0.408,1.246 l 1.915,5.245 H 0.827 L 1.167,0 Z"
       style="fill:#ffffff;fill-opacity:1;fill-rule:nonzero;stroke:none"
       transform="matrix(0.35277776,0,0,-0.35277776,183.69338,159.50293)"
       clip-path="url(#clipPath63758)" />
    <path
       id="path63759"
       d="m 0,0 h -3.886 l -0.011,-0.159 c 0,-1.189 0.736,-2.027 1.983,-2.027 0.555,0 1.087,0.238 1.415,0.509 l 0.465,-0.86 c -0.487,-0.352 -1.19,-0.59 -2.073,-0.59 -1.87,0 -2.866,1.349 -2.866,3.15 0,1.552 0.781,3.229 2.616,3.229 1.688,0 2.379,-1.371 2.379,-2.731 C 0.022,0.363 0.011,0.17 0,0 m -2.413,2.402 c -1.02,0 -1.439,-0.861 -1.473,-1.575 h 2.877 c 0.023,0.771 -0.464,1.575 -1.404,1.575 m 0.396,1.28 H -2.9 l 1.314,1.756 h 1.302 z"
       style="fill:#ffffff;fill-opacity:1;fill-rule:nonzero;stroke:none"
       transform="matrix(0.35277776,0,0,-0.35277776,186.37255,158.4639)"
       clip-path="url(#clipPath63760)" />
    <path
       id="path63761"
       d="M 0,0 C -1.076,0 -1.597,0.68 -1.597,1.677 V 5.212 H -2.64 v 0.872 h 1.054 v 1.291 l 1.077,0.374 V 6.084 H 1.042 V 5.212 H -0.509 V 1.813 c 0,-0.634 0.328,-0.895 0.86,-0.895 0.284,0 0.522,0.068 0.669,0.147 L 1.19,0.193 C 0.906,0.079 0.442,0 0,0"
       style="fill:#ffffff;fill-opacity:1;fill-rule:nonzero;stroke:none"
       transform="matrix(0.35277776,0,0,-0.35277776,187.52428,159.57098)"
       clip-path="url(#clipPath63762)" />
    <path
       id="path63763"
       d="m 0,0 c -0.114,0.057 -0.295,0.136 -0.487,0.136 -0.465,0 -0.702,-0.215 -0.952,-0.487 -0.193,-0.227 -0.215,-0.43 -0.215,-0.725 v -3.818 h -1.099 v 4.52 c 0,0.487 -0.034,1.201 -0.046,1.496 h 0.998 V 0.17 c 0.351,0.555 0.804,1.099 1.552,1.099 0.203,0 0.419,-0.057 0.543,-0.102 z"
       style="fill:#ffffff;fill-opacity:1;fill-rule:nonzero;stroke:none"
       transform="matrix(0.35277776,0,0,-0.35277776,189.33141,157.77647)"
       clip-path="url(#clipPath63764)" />
    <path
       id="path63765"
       d="m 0,0 c 0,-1.643 -0.884,-3.229 -2.764,-3.229 -1.903,0 -2.719,1.575 -2.719,3.24 0,1.654 0.895,3.195 2.764,3.195 1.904,0 2.708,-1.541 2.708,-3.195 z m -2.719,2.277 c -1.234,0 -1.631,-1.258 -1.631,-2.266 0,-0.997 0.328,-2.311 1.586,-2.311 1.257,0 1.632,1.303 1.632,2.289 0,0.996 -0.329,2.288 -1.587,2.288"
       style="fill:#ffffff;fill-opacity:1;fill-rule:nonzero;stroke:none"
       transform="matrix(0.35277776,0,0,-0.35277776,191.47401,158.43973)"
       clip-path="url(#clipPath63766)" />
    <path
       id="path63767"
       d="m 0,0 c 0,-1.586 -0.839,-3.285 -2.629,-3.285 -0.475,0 -1.042,0.125 -1.348,0.464 V -5.37 h -1.087 v 8.282 h 1.019 V 1.971 c 0.397,0.635 0.963,1.122 1.824,1.122 C -0.793,3.093 0,1.62 0,-0.011 Z m -2.617,2.074 c -0.51,0 -0.838,-0.261 -1.077,-0.533 C -3.932,1.269 -3.977,1.133 -3.977,0.804 v -2.401 c 0,-0.453 0.374,-0.827 1.156,-0.827 1.178,0 1.688,1.087 1.688,2.232 0,1.144 -0.431,2.266 -1.484,2.266"
       style="fill:#ffffff;fill-opacity:1;fill-rule:nonzero;stroke:none"
       transform="matrix(0.35277776,0,0,-0.35277776,193.74516,158.40795)"
       clip-path="url(#clipPath63768)" />
    <path
       id="path63769"
       d="m 0,0 c 0,-1.643 -0.884,-3.229 -2.764,-3.229 -1.903,0 -2.719,1.575 -2.719,3.24 0,1.654 0.895,3.195 2.764,3.195 1.904,0 2.708,-1.541 2.708,-3.195 z m -2.719,2.277 c -1.234,0 -1.631,-1.258 -1.631,-2.266 0,-0.997 0.328,-2.311 1.586,-2.311 1.257,0 1.632,1.303 1.632,2.289 0,0.996 -0.329,2.288 -1.587,2.288"
       style="fill:#ffffff;fill-opacity:1;fill-rule:nonzero;stroke:none"
       transform="matrix(0.35277776,0,0,-0.35277776,196.05183,158.43973)"
       clip-path="url(#clipPath63770)" />
    <path
       id="path63771"
       d="m 1197.887,1279.888 h 1.087 v 8.383 h -1.087 z"
       style="fill:#ffffff;fill-opacity:1;fill-rule:nonzero;stroke:none"
       transform="matrix(0.35277776,0,0,-0.35277776,-226.05161,611.01886)"
       clip-path="url(#clipPath63772)" />
    <path
       id="path63773"
       d="m 0,0 h -3.886 l -0.011,-0.159 c 0,-1.189 0.736,-2.027 1.983,-2.027 0.555,0 1.087,0.238 1.415,0.509 l 0.465,-0.86 c -0.487,-0.352 -1.19,-0.59 -2.073,-0.59 -1.87,0 -2.866,1.349 -2.866,3.15 0,1.552 0.781,3.229 2.616,3.229 1.688,0 2.379,-1.371 2.379,-2.731 C 0.022,0.363 0.011,0.17 0,0 m -2.413,2.402 c -1.02,0 -1.439,-0.861 -1.473,-1.575 h 2.877 c 0.023,0.771 -0.464,1.575 -1.404,1.575"
       style="fill:#ffffff;fill-opacity:1;fill-rule:nonzero;stroke:none"
       transform="matrix(0.35277776,0,0,-0.35277776,199.15859,158.4639)"
       clip-path="url(#clipPath63774)" />
  </g>
</svg>
